# xmcd
#
# Track frame offsets:
#	183
#	14993
#	29828
#	44428
#	58478
#	72478
#	85300
#	99645
#	122295
#	136175
#	149375
#	163360
#	180148
#	194553
#	209700
#	224450
#	235850
#	250363
#	264328
#	278028
#	291800
#
# Disc length: 4064 seconds
#
# Revision: 0
# Processed by: cddbd v1.5.2PL0 Copyright (c) Steve Scherf et al.
# Submitted via: audiograbber 1.83.01
#
DISCID=570fde15
DTITLE=Frank Sinatra - The Kid From Hoboken CD4
DYEAR=1994
DGENRE=
TTITLE0=This Is The Beginning Of The End
TTITLE1=I'll Never Let A Day Pass
TTITLE2=Do I Worry?
TTITLE3=I'll Never Be Seeing You
TTITLE4=I Haven't Time To Be A Millionaire
TTITLE5=Where Do You Keep Your Heart?
TTITLE6=Love Me As I Am
TTITLE7=Let's Get Away From It All
TTITLE8=We Three
TTITLE9=How About You?
TTITLE10=Light A Candle In The Chapel
TTITLE11=This Love Of Mine
TTITLE12=I'll Never Smile Again
TTITLE13=Snootie Little Cutie
TTITLE14=Everything Happens To Me
TTITLE15=The Sunshine Of Your Smile
TTITLE16=How Do You Do Without Me?
TTITLE17=Violets For Your Furs
TTITLE18=Whispering
TTITLE19=You're Breaking My Heart All Over Again
TTITLE20=The Lamplighter's Serenade
EXTD=
EXTT0=
EXTT1=
EXTT2=
EXTT3=
EXTT4=
EXTT5=
EXTT6=
EXTT7=
EXTT8=
EXTT9=
EXTT10=
EXTT11=
EXTT12=
EXTT13=
EXTT14=
EXTT15=
EXTT16=
EXTT17=
EXTT18=
EXTT19=
EXTT20=
PLAYORDER=
